<svg xmlns="http://www.w3.org/2000/svg" viewBox="0 0 149.2 149.49"><defs><style>.cls-1{fill:#fce300;}.cls-2{fill:#fff;}</style></defs><g id="Capa_2" data-name="Capa 2"><g id="Capa_1-2" data-name="Capa 1"><polygon class="cls-1" points="58.04 78.01 70.67 40.12 83.4 78.31 70.77 116.2 58.04 78.01"/><path class="cls-2" d="M16.79,21.44,29,28.08,24.76,14.85l2.37-2,6.29,20.7-19-10.2Z"/><path class="cls-2" d="M35.86,18A9.1,9.1,0,0,1,36,10.69a9.48,9.48,0,0,1,5.33-5.18A9.71,9.71,0,0,1,53.9,10.85a9.13,9.13,0,0,1-.11,7.37,9.8,9.8,0,0,1-12.31,5.3A9.08,9.08,0,0,1,35.86,18Zm2.63-1a6.89,6.89,0,0,0,12.78.27,6.86,6.86,0,0,0,0-5.37A6.83,6.83,0,0,0,47.57,8a6.58,6.58,0,0,0-5.29,0,6.63,6.63,0,0,0-3.78,3.71A6.69,6.69,0,0,0,38.49,17Z"/><path class="cls-2" d="M63.82,3.11,65.56,19l-2.79.3L61,3.42l-4.25.46-.28-2.62L67.77,0l.28,2.62Z"/><path class="cls-2" d="M78,.4,76.4,11.47A6.12,6.12,0,0,0,76.67,15a4.17,4.17,0,0,0,6.51.94,6,6,0,0,0,1.27-3.35l1.6-11.07,2.77.4-1.7,11.83a6.73,6.73,0,0,1-2.5,4.53,6.79,6.79,0,0,1-5.3,1.37,6.73,6.73,0,0,1-5.81-7.86L75.21,0Z"/><path class="cls-2" d="M89.39,20.77,102.1,4.89l-1,15.75L113.6,10.9l-6.14,19.32-2.55-1.33,3.61-10.76L98.06,26.27l.86-13.17-7,9Z"/><path class="cls-2" d="M132.72,29.48l-8.09,10.57,14-2.59-8.87,11L143,46.44l1.58,2.6-21.18,3.17,8.76-10.92-13.83,2.59,12.78-17Z"/><path class="cls-2" d="M137.55,57.75a9,9,0,0,1,7.11,1.74,9.45,9.45,0,0,1,3.9,6.33,9.74,9.74,0,0,1-8,11.1,9.16,9.16,0,0,1-7.17-1.72A9.83,9.83,0,0,1,130.94,62,9.11,9.11,0,0,1,137.55,57.75Zm.42,2.79a6.73,6.73,0,0,0-4.66,2.87A6.86,6.86,0,0,0,134.92,73a7.22,7.22,0,0,0,9.83-1.59,6.93,6.93,0,0,0-1.59-9.65A6.68,6.68,0,0,0,138,60.54Z"/><path class="cls-2" d="M137.77,89.34l-8.64,4.58.48-3.39,8.27-4.19.07-.5-7.53-1.06.39-2.77,18.39,2.6-.46,3.25q-.51,3.65-2.12,5.07a5.07,5.07,0,0,1-4.27,1.21,5.22,5.22,0,0,1-3.2-1.59A5.06,5.06,0,0,1,137.77,89.34Zm2.59-3.15-.12.88c-.37,2.63.45,4.08,2.45,4.37s3-.88,3.37-3.44l.14-1Z"/><path class="cls-2" d="M144.34,106l-14.9-5.64-1.93,5.11-2.46-.94L128,96.85l17.37,6.57Z"/><path class="cls-2" d="M123.87,107.25l15.26,10.58-2.22,3.2a14.41,14.41,0,0,1-3,3.32,8.22,8.22,0,0,1-3.31,1.55,8.88,8.88,0,0,1-7.3-1.56,9,9,0,0,1-3.71-10,14.69,14.69,0,0,1,2.06-3.88Zm.57,3.8-.72,1a10.47,10.47,0,0,0-1.47,2.81,6.52,6.52,0,0,0-.19,2.61,7,7,0,0,0,8.1,5.65,7.78,7.78,0,0,0,4.49-3.49l.72-1Z"/><path class="cls-2" d="M101,133.67a22.08,22.08,0,0,1-.61-2.57,16.07,16.07,0,0,1,2.3-2c3.28-2.15,6.39-1.08,8,1.33,1.84,2.8,1,6.13-2.09,8.15a16.44,16.44,0,0,1-2.8,1.39c-.46-.58-1.1-1.34-1.66-2l.36-.38a2.81,2.81,0,0,0,2.47.91,4.54,4.54,0,0,0,1.61-.68c2.27-1.49,2.36-3.95.87-6.22-1.74-2.64-4.23-3.44-6.46-2-1.4.92-1.66,2-1.46,3.85Z"/><path class="cls-2" d="M91.37,146c1.21-.62,1.31-.75.8-2l-2.44-6.11c-.51-1.29-.67-1.28-2-.91l-.17-.43,4.09-1.63.17.43c-1.21.65-1.32.73-.81,2l1.22,3,5.21-2.07-1.21-3.05c-.51-1.27-.65-1.27-2-.92l-.17-.43,4.07-1.62.17.43c-1.18.63-1.3.73-.79,2l2.44,6.11c.51,1.28.68,1.3,2,.94l.17.42-4.07,1.62-.17-.42c1.18-.6,1.29-.76.78-2l-1-2.42L92.51,141l1,2.43c.5,1.26.71,1.3,2,.92l.17.43-4.08,1.63Z"/><path class="cls-2" d="M80.3,137.86l.08.45c-1,.32-1.12.5-.78,1.08s.79,1.34,1.32,2.29L84.4,141c.13-.77.26-1.44.36-2.15.17-1.11-.08-1.2-1.44-1.12l-.08-.45,3.73-.68.08.45c-1,.32-1.23.48-1.53,2l-1.79,9.09-.5.19c-1.52-2.57-3.2-5.42-4.72-8-.78-1.31-1-1.41-2.11-1.33l-.09-.46Zm3.19,8.31c.26-1.48.54-3,.79-4.42l-3,.55Z"/><path class="cls-2" d="M69.67,146.8c.3,1.08.78,2.14,2.32,2.11a1.63,1.63,0,0,0,1.69-1.82c0-1.13-.75-1.7-2.13-2.38-2-1-2.86-1.72-2.88-3.28,0-1.72,1.43-3.06,3.55-3.1a6.86,6.86,0,0,1,2.53.49,25,25,0,0,1,.48,2.46l-.5.14c-.35-1.1-1.1-2.51-2.81-2.48a1.81,1.81,0,0,0-1.87,1.92c0,1.27.71,1.77,2.17,2.53,1.74.9,2.72,1.67,2.75,3.2s-1.16,2.86-3.33,2.9a10.4,10.4,0,0,1-2.18-.27c-.07-.59-.15-1.25-.3-2.31Z"/><path class="cls-2" d="M66.86,138.51l0,.46c-1.35,0-1.49.06-1.63,1.45l-.66,6.49c-.14,1.41,0,1.49,1.31,1.77l0,.45-4.39-.44.05-.45c1.37,0,1.51-.07,1.65-1.47l.66-6.49c.14-1.41,0-1.47-1.33-1.76l0-.45Z"/><path class="cls-2" d="M47.07,145c1,.16,1.42.09,1.66-.63.15-.5.36-1.16.75-2.64l1.7-6.36.6.16,4.59,10.11,1.05-4c.38-1.43.53-2.15.61-2.62.19-.82-.14-1.17-1.26-1.56l.12-.45,3.85,1-.12.44c-1-.18-1.44,0-1.72.72-.18.49-.4,1.2-.78,2.64l-1.08,4a1.39,1.39,0,0,0,0,1.13c.19.48.5.66,1.26,1l-.12.44-2.38-.63L51.23,138l-1,3.89c-.39,1.48-.54,2.17-.62,2.66-.15.73.16,1.05,1.41,1.46l-.12.45-3.92-1Z"/><path class="cls-2" d="M36.94,133.75c1,.35,1.07.29,1.51-.58l.62-1.23a9.24,9.24,0,0,0,.62-1.43,16.59,16.59,0,0,1,3.59,1.15c3.32,1.68,4.3,4.77,2.81,7.71-1.56,3.09-5,3.66-7.94,2.18a17,17,0,0,1-2.86-1.9c.24-.56.62-1.49,1-2.47l.49.13c-.28,1.43-.12,2.17.64,2.94a5.28,5.28,0,0,0,1.27.88c2.24,1.13,4.47.33,5.82-2.35,1.18-2.33,1.15-5.25-1.7-6.69a3.24,3.24,0,0,0-1.37-.38c-.39,0-.67.09-1,.69l-.61,1.2c-.53,1.07-.48,1.24.88,2.06l-.22.42-3.76-1.9Z"/><path class="cls-2" d="M26.16,122.72c.35-.26,1.8-1.23,2.25-1.49l6,5.27-.3.34c-1.22-.92-1.41-.88-2.3.13l-4.28,4.86c-1,1.1-.89,1.28,0,2.18l-.3.35L23.41,131c-1.16-1-1.65-1.43-1.81-1.55.26-.32,1-1.29,1.55-2l.42.26a5.24,5.24,0,0,0-.45,1.26c-.16.58,0,.92.78,1.57l1.17,1c.39.34.44.32.76,0l2.39-2.72-1.36-1.2c-.93-.82-1.15-.69-2,0l-.38-.34,2.24-2.53.38.33c-.62,1-.63,1.24.25,2l1.36,1.19,2.16-2.45c.76-.86.55-1.17,0-1.73l-1.15-1c-.75-.66-1-.66-1.53-.58a7.87,7.87,0,0,0-1.66.55Z"/><path class="cls-2" d="M11.93,117.3c.74.76,1.08.93,1.7.5.43-.31,1-.71,2.19-1.65L21,112.09l.39.49L19,123.41l3.23-2.53c1.17-.91,1.72-1.41,2.07-1.73.64-.54.58-1-.07-2l.36-.28L27,120l-.36.28c-.69-.75-1.13-.9-1.8-.46-.45.29-1.05.72-2.22,1.64L19.33,124a1.42,1.42,0,0,0-.65.93c-.13.49,0,.83.44,1.51l-.37.28-1.52-1.94,2.21-10.57-3.16,2.48c-1.21,1-1.74,1.41-2.1,1.75-.55.49-.5.93.25,2l-.36.28-2.5-3.19Z"/><path class="cls-2" d="M7.72,110.51c-1-2.08-1.26-3.6-.84-4.94a4.78,4.78,0,0,1,2.54-2.8,5.42,5.42,0,0,1,4.89-.12,7.82,7.82,0,0,1,3.31,3.8l1.7,3.45-.41.2c-.74-1.21-.88-1.22-2.09-.62l-5.88,2.89c-1.27.62-1.24.83-.79,2l-.42.2Zm8.35-2.26c1.11-.54,1.19-1.17.64-2.27-1.3-2.66-3.78-3.12-6.36-1.85a4.25,4.25,0,0,0-2.7,3.45,5.2,5.2,0,0,0,.65,2.81,2.37,2.37,0,0,0,.78,1.06c.15.09.34.07.92-.21Z"/><path class="cls-2" d="M9.26,91.48c.52,0,2.3,0,2.83,0l2.07,7.35-.45.12c-.54-1.4-.66-1.5-2-1.12L5.44,99.59c-1.34.37-1.38.55-1.15,1.85l-.44.13L2.66,97.33l.44-.12c.48,1.23.59,1.38,1.95,1l6.43-1.81c1-.27,1.15-.46.91-1.37,0,0-.31-1.15-.33-1.25-.23-.8-.39-1-.89-1.27a5.43,5.43,0,0,0-1.9-.5Z"/><path class="cls-2" d="M8.12,81.35c.43.05,2.16.3,2.67.41l.9,7.93-.45,0c-.29-1.5-.45-1.6-1.79-1.45L3,89c-1.45.17-1.51.35-1.49,1.59l-.45,0-.57-5C.32,84.13.23,83.5.19,83.31c.41-.07,1.62-.27,2.48-.43l.14.48A5.61,5.61,0,0,0,1.62,84c-.51.32-.58.71-.47,1.69l.18,1.55c.06.5.11.53.58.48l3.61-.41-.21-1.82c-.13-1.22-.39-1.27-1.52-1.34l-.06-.51,3.36-.38.06.51C6,84.1,5.85,84.25,6,85.43l.21,1.79,3.25-.37c1.14-.13,1.2-.5,1.12-1.31L10.39,84c-.11-1-.28-1.14-.74-1.46A7.45,7.45,0,0,0,8,81.85Z"/><path class="cls-2" d="M2.8,73.76C1.7,74,.62,74.42.56,76a1.65,1.65,0,0,0,1.73,1.79c1.13,0,1.73-.66,2.49-2,1.08-1.93,1.87-2.75,3.43-2.7,1.72.07,3,1.61,2.9,3.72a7,7,0,0,1-.63,2.49A21,21,0,0,1,8,79.61l-.11-.51c1.11-.29,2.56-1,2.62-2.66a1.8,1.8,0,0,0-1.81-2c-1.27,0-1.8.61-2.64,2-1,1.69-1.82,2.62-3.34,2.57S-.08,77.74,0,75.58a11.86,11.86,0,0,1,.39-2.16c.6,0,1.25-.08,2.33-.17Z"/><path class="cls-2" d="M4.13,64.27c-1.11.08-2.25.35-2.52,1.87a1.64,1.64,0,0,0,1.46,2c1.12.2,1.81-.41,2.75-1.63,1.35-1.76,2.24-2.47,3.78-2.2,1.69.3,2.72,2,2.36,4.09a7,7,0,0,1-1,2.38,20.52,20.52,0,0,1-2.5,0l0-.52c1.14-.13,2.67-.59,3-2.27a1.8,1.8,0,0,0-1.53-2.21C8.64,65.57,8,66.14,7,67.43,5.77,69,4.82,69.78,3.32,69.51S.73,67.82,1.11,65.68A10.26,10.26,0,0,1,1.8,63.6l2.32.15Z"/><path class="cls-2" d="M9,49.66,4.56,40l10.62-1.22,4.38,9.66ZM6,40.78l3.57,7.87,8.66-1-3.57-7.88Z"/></g></g></svg>